<?xml version="1.0" encoding="UTF-8"?>
<svg id="Layer_2" data-name="Layer 2" xmlns="http://www.w3.org/2000/svg" viewBox="0 0 672.97 467.98">
  <defs>
    <style>
      .cls-1 {
        fill: #f4f4f4;
      }
    </style>
  </defs>
  <g id="Layer_1-2" data-name="Layer 1">
    <polygon class="cls-1" points="454.07 93.55 453.61 94.33 130.22 94.33 125.92 86.97 74.96 0 399.26 0 401.49 3.83 427.33 47.92 454.07 93.55"/>
    <g>
      <polygon class="cls-1" points="192.85 278.09 162.71 329.54 115.39 329.54 145.53 278.09 192.85 278.09"/>
      <polygon class="cls-1" points="402.82 181.01 373.83 230.52 345.95 278.09 318.27 325.34 315.81 329.54 210.67 329.54 239.35 280.59 240.81 278.09 292.49 278.09 320.37 230.52 268.69 230.52 297.69 181.01 249.73 181.01 241.73 194.68 220.73 230.52 173.41 230.52 191.71 199.28 202.41 181.01 218.07 154.3 231.42 131.5 378.37 131.5 349.36 181.01 402.82 181.01"/>
      <polygon class="cls-1" points="268.69 230.52 265.71 235.61 240.81 278.09 192.85 278.09 215.37 239.66 220.73 230.52 268.69 230.52"/>
    </g>
    <polygon class="cls-1" points="179.96 131.5 165.98 155.36 150.95 181.01 121.95 230.52 94.07 278.09 63.93 329.54 40.06 370.29 16.19 329.54 0 301.91 0 301.9 13.94 278.09 70.82 181.01 99.83 131.5 179.96 131.5"/>
    <polygon class="cls-1" points="672.97 0 617.71 94.33 595.93 131.5 566.92 181.01 561.23 190.71 537.92 230.52 536.11 233.59 510.04 278.09 479.91 329.54 456.02 370.31 400.32 465.37 344.62 370.31 344.07 369.37 367.4 329.54 397.54 278.09 425.42 230.52 454.42 181.01 479.87 137.59 483.43 131.5 504.99 94.7 505.2 94.33 504.77 94.33 479.19 50.67 452.46 5.04 449.51 0 672.97 0"/>
    <polygon class="cls-1" points="349.13 467.98 97.3 467.98 89.45 454.59 65.79 414.21 40.07 370.31 291.92 370.31 291.92 370.32 317.72 414.35 349.13 467.98"/>
  </g>
</svg>